<svg xmlns="http://www.w3.org/2000/svg" xmlns:xlink="http://www.w3.org/1999/xlink" viewBox="0 0 36 36">
<title>🖕: middle finger (U+1F595) - emojiall.com</title>
<style>svg{stroke:#edf2f6;animation:dashoffset 10s both infinite,fill-opacity 10s both infinite,stroke-opacity 10s both infinite;stroke-dasharray:500%;stroke-dashoffset:500%}@keyframes stroke-opacity{2%,25%{stroke-opacity:.75;stroke-width:2%}100%,75%{stroke-opacity:0;stroke-width:0}}@keyframes fill-opacity{10%,25%{fill-opacity:0}0%,100%,50%{fill-opacity:1}}@keyframes dashoffset{0%,2%{stroke-dashoffset:500%}100%{stroke-dashoffset:0%}}</style>
<path fill="#FFDC5D" d="M30.011 20.183s.093-2.362-1.792-3.068c-1.667-.625-2.309.622-2.309.622s.059-1.914-1.941-2.622c-1.885-.668-2.984.773-2.984.773s-.072-1.687-2.058-2.232c-1.671-.459-2.916 1.167-2.916 1.167v-.822c0-.959-.542-2.575-2.543-2.576-2-.002-2.457 1.659-2.457 2.576v1.614c0 1.323-.948.198-1.636.823-1.57 1.427-2.269 6.431-1.188 10.5 1.312 4.938 4.062 9.101 9.694 9.101 8.132 0 12.124-5.298 12.129-11.924l.001-3.932z"/>
<path fill="#FFDC5D" d="M21 18.5c0 1.381-1.119 2.5-2.5 2.5S16 19.881 16 18.5v-16C16 1.119 17.119 0 18.5 0S21 1.119 21 2.5v16zM12.25 16l-2.312.003c-1.625 0-2.141.465-2.812 3.122-.438 1.729-.984 2.547-.984 4.391 0 2.906 4.594 12.348 11.359 12.391L12.25 16z"/>
<path fill="#EF9645" d="M10 25.521c0 .251.204.479.456.479h.088c.252 0 .456-.204.456-.456V16h-.969L10 25.521z"/>
<a xlink:href="https://www.emojiall.com/en/emoji/%F0%9F%96%95"><text x="36" y="34" font-size="1px" fill="#888da8" text-anchor="end" font-family="apple color emoji,segoe ui emoji,noto color emoji,android emoji,emojisymbols,emojione mozilla,twemoji mozilla,segoe ui symbol,Noto Color Emoji Compat,emoji,sans-serif">🖕</text></a>
<a xlink:href="https://www.emojiall.com/"><text x="36" y="35" font-size="0.8px" fill="#888da8" text-anchor="end"><title>www.emojiall.com</title>emojiall.com</text></a>
</svg>